<?xml version="1.0" encoding="UTF-8"?>
<svg xmlns="http://www.w3.org/2000/svg" xmlns:xlink="http://www.w3.org/1999/xlink" width="16pt" height="16pt" viewBox="0 0 16 16" version="1.1">
<g id="surface1">
<path style=" stroke:none;fill-rule:nonzero;fill:rgb(100%,62.745098%,0%);fill-opacity:1;" d="M 13.332031 4 L 7.332031 4 L 6 2.667969 L 2.667969 2.667969 C 1.933594 2.667969 1.332031 3.265625 1.332031 4 L 1.332031 6.667969 L 14.667969 6.667969 L 14.667969 5.332031 C 14.667969 4.601562 14.066406 4 13.332031 4 Z M 13.332031 4 "/>
<path style=" stroke:none;fill-rule:nonzero;fill:rgb(100%,79.215686%,15.686275%);fill-opacity:1;" d="M 13.332031 4 L 2.667969 4 C 1.933594 4 1.332031 4.601562 1.332031 5.332031 L 1.332031 12 C 1.332031 12.734375 1.933594 13.332031 2.667969 13.332031 L 13.332031 13.332031 C 14.066406 13.332031 14.667969 12.734375 14.667969 12 L 14.667969 5.332031 C 14.667969 4.601562 14.066406 4 13.332031 4 Z M 13.332031 4 "/>
</g>
</svg>
