<svg width="35" height="35" viewBox="0 0 35 35" fill="none" xmlns="http://www.w3.org/2000/svg">
<path d="M17.85 21.3763L10.9193 28.307L1.15791 18.5456C0.58624 17.974 0.58624 17.0479 1.15791 16.4763L6.01926 11.6149C6.59093 11.0432 7.51697 11.0432 8.08864 11.6149L17.85 21.3763Z" fill="#FFD600"/>
<path d="M12.977 30.364L8.11561 25.5026C7.54394 24.931 7.54394 24.0049 8.11561 23.4332L26.9113 4.63606C27.483 4.06439 28.409 4.06439 28.9807 4.63606L33.8421 9.49741C34.4137 10.0691 34.4137 10.9951 33.8421 11.5668L15.0456 30.364C14.4747 30.9349 13.5479 30.9349 12.977 30.364Z" fill="url(#paint0_linear)"/>
<defs>
<linearGradient id="paint0_linear" x1="10.6254" y1="27.8535" x2="31.4912" y2="6.98762" gradientUnits="userSpaceOnUse">
<stop stop-color="#FFD600"/>
<stop offset="1" stop-color="#FFF500"/>
</linearGradient>
</defs>
</svg>
